Coordinates
version=1
nRows=17
nColumns=24
inDegrees=yes

Units are S.I. units (second, meters, Newtons, ...)
Angles are in degrees.

endheader
time	pelvis_tilt	pelvis_list	pelvis_rotation	pelvis_tx	pelvis_ty	pelvis_tz	hip_flexion_r	hip_adduction_r	hip_rotation_r	knee_angle_r	ankle_angle_r	subtalar_angle_r	mtp_angle_r	hip_flexion_l	hip_adduction_l	hip_rotation_l	knee_angle_l	ankle_angle_l	subtalar_angle_l	mtp_angle_l	lumbar_extension	lumbar_bending	lumbar_rotation
      1.74166667	      2.00600955	      4.03187817	     -2.35185869	      1.46774960	      1.02513920	      0.22680619	     10.89188807	     -2.75601739	      0.84691550	    -63.04098719	      4.95883298	    -17.71966277	      3.95812922	      2.76911907	      7.97681894	      1.53229204	     -8.85999146	      2.73498877	    -14.31557458	      4.87400811	     -2.52005539	     -5.97284481	      4.13139533
      1.74583333	      2.01435939	      3.93297146	     -2.11357847	      1.47258587	      1.02568066	      0.22635716	     11.38300802	     -2.63583557	      0.66043580	    -62.66461652	      5.11169928	    -17.83107791	      3.86967383	      2.24770100	      7.89984396	      1.83801225	     -8.46596510	      2.74947287	    -14.32927531	      4.80814630	     -2.56175550	     -5.84431116	      3.93029583
      1.75000000	      2.02666188	      3.85411380	     -1.88526405	      1.47738003	      1.02617722	      0.22592461	     11.87290117	     -2.54526511	      0.47774009	    -62.27881129	      5.30421229	    -17.92342215	      3.74346312	      1.71987473	      7.84076241	      2.14180635	     -8.05729104	      2.71537097	    -14.39487600	      4.71115184	     -2.59851588	     -5.74178016	      3.68164981
      1.75416667	      2.02925951	      3.75756418	     -1.64174892	      1.48220588	      1.02663914	      0.22548241	     12.35703866	     -2.43698442	      0.28728424	    -61.85180041	      5.44595602	    -18.02634661	      3.61547890	      1.21502157	      7.75632627	      2.44716229	     -7.67787643	      2.72741741	    -14.42865301	      4.61947515	     -2.63162737	     -5.61238751	      3.44907259
      1.75833333	      2.03962611	      3.66114110	     -1.41329506	      1.48698200	      1.02707292	      0.22507060	     12.83169619	     -2.32970084	      0.11310299	    -61.40253974	      5.57154956	    -18.09945619	      3.52204024	      0.71158051	      7.66608499	      2.72455011	     -7.31918455	      2.78881906	    -14.42013354	      4.55172208	     -2.67274514	     -5.48763855	      3.26404921
      1.76250000	      2.04565563	      3.57039314	     -1.18124089	      1.49176500	      1.02747150	      0.22465380	     13.30408207	     -2.23547922	     -0.06677466	    -60.92897010	      5.69889794	    -18.17902948	      3.43126175	      0.20725554	      7.57781567	      3.01301690	     -6.93810358	      2.80120149	    -14.43498902	      4.48780840	     -2.70930082	     -5.36687312	      3.05558390
      1.76666667	      2.04735159	      3.48201595	     -0.95211582	      1.49653598	      1.02782250	      0.22425082	     13.77115330	     -2.14788709	     -0.24335816	    -60.42919056	      5.84201188	    -18.23638039	      3.33885118	     -0.28937815	      7.48742466	      3.29369999	     -6.56389922	      2.81688673	    -14.45763054	      4.42241324	     -2.73982384	     -5.24995729	      2.83436069
      1.77083333	      2.05073179	      3.40506737	     -0.73397823	      1.50132257	      1.02814238	      0.22386568	     14.23301748	     -2.07444725	     -0.40760996	    -59.91301141	      5.96989798	    -18.31657835	      3.20261975	     -0.79613076	      7.40545239	      3.56660568	     -6.16182671	      2.77736613	    -14.51534842	      4.32834755	     -2.76989714	     -5.14568819	      2.61470771
      1.77500000	      2.02882724	      3.31513332	     -0.51653739	      1.50611137	      1.02839311	      0.22349771	     14.71191597	     -1.98690161	     -0.56461578	    -59.36767560	      6.10398658	    -18.33965723	      3.16993985	     -1.24034977	      7.30003130	      3.76530154	     -5.83403295	      2.83281707	    -14.40637794	      4.30752606	     -2.77018743	     -5.02105951	      2.54080423
      1.77916667	      2.04874177	      3.22948784	     -0.29640690	      1.51084666	      1.02867571	      0.22313349	     15.13597986	     -1.90720335	     -0.72160309	    -58.78984487	      6.16922434	    -18.40957645	      3.07116005	     -1.75886802	      7.20171023	      4.06927358	     -5.44521846	      2.85268093	    -14.49673605	      4.24261793	     -2.82287195	     -4.91033360	      2.22502378
      1.78333333	      2.05247500	      3.16544560	     -0.08003266	      1.51563749	      1.02888700	      0.22278344	     15.57203054	     -1.85816914	     -0.87813197	    -58.20645637	      6.29957633	    -18.43268978	      2.93444613	     -2.25653178	      7.12125742	      4.34901394	     -5.06156727	      2.81965091	    -14.57341382	      4.14672695	     -2.84390501	     -4.82678103	      2.02020203
      1.78750000	      2.07563490	      3.07539264	      0.11337934	      1.52035104	      1.02910999	      0.22246605	     15.97763976	     -1.77427861	     -1.00771258	    -57.57796809	      6.37325959	    -18.45374507	      2.85384102	     -2.76020954	      7.00689194	      4.55755010	     -4.70123543	      2.87095846	    -14.54198227	      4.09368102	     -2.90906697	     -4.70062143	      1.88178254
      1.79166667	      2.04818592	      2.99991765	      0.31399275	      1.52516992	      1.02920692	      0.22214671	     16.42632936	     -1.71267834	     -1.14104097	    -56.94023630	      6.46659614	    -18.45603816	      2.76354354	     -3.21340502	      6.90657046	      4.79765722	     -4.34366764	      2.89303931	    -14.57362178	      4.03131719	     -2.88649027	     -4.59979237	      1.68768763
      1.79583333	      2.03709653	      2.92693499	      0.51647537	      1.52989586	      1.02930662	      0.22185272	     16.85626919	     -1.65276272	     -1.26877781	    -56.28466275	      6.57138112	    -18.45379092	      2.73085176	     -3.65881260	      6.80003100	      4.96571236	     -4.01495938	      2.91101687	    -14.47475043	      4.01089574	     -2.90202633	     -4.49605351	      1.61802196
      1.80000000	      2.03956943	      2.84565413	      0.71744834	      1.53464475	      1.02940373	      0.22156303	     17.24766966	     -1.58716432	     -1.39604221	    -55.58402282	      6.63576129	    -18.45066394	      2.68751240	     -4.12691734	      6.68342294	      5.16860961	     -3.68160831	      2.94950403	    -14.45981747	      3.98408747	     -2.91944756	     -4.39715833	      1.45051147
      1.80416667	      2.07070469	      2.78629811	      0.89877306	      1.53934119	      1.02948334	      0.22130187	     17.61575328	     -1.54191653	     -1.49709479	    -54.88641086	      6.67138905	    -18.46335754	      2.60577759	     -4.64869700	      6.59068179	      5.43542010	     -3.29243665	      2.95993606	    -14.56454162	      3.92905316	     -2.99999237	     -4.31186975	      1.18806859
      1.80833333	      2.05091761	      2.72465889	      1.11229304	      1.54405286	      1.02945778	      0.22101617	     18.02289452	     -1.50817508	     -1.62983652	    -54.16669452	      6.74150869	    -18.42919393	      2.52968970	     -5.08635300	      6.48824209	      5.68271909	     -2.96063589	      2.98439786	    -14.59463913	      3.87756628	     -3.00363587	     -4.22876819	      1.01689859
